<?xml version="1.0" standalone="no"?>
<!DOCTYPE svg PUBLIC "-//W3C//DTD SVG 20010904//EN"
 "http://www.w3.org/TR/2001/REC-SVG-20010904/DTD/svg10.dtd">
<svg version="1.0" xmlns="http://www.w3.org/2000/svg"
 width="564.000000pt" height="140.000000pt" viewBox="0 0 564.000000 140.000000"
 preserveAspectRatio="xMidYMid meet">
<metadata>
Created by potrace 1.16, written by Peter Selinger 2001-2019
</metadata>
<g transform="translate(0.000000,140.000000) scale(0.100000,-0.100000)"
fill="#000000" stroke="none">
<path d="M2344 969 c-17 -19 -19 -38 -19 -169 l0 -148 -38 -13 c-43 -14 -64
-35 -26 -26 81 20 76 21 83 -13 3 -18 6 -48 6 -66 0 -24 5 -34 16 -34 13 0 14
10 8 69 l-6 68 33 6 c19 3 64 9 102 13 37 3 70 11 74 17 6 10 -57 6 -173 -10
-48 -6 -50 -2 -60 113 -17 184 38 245 146 166 33 -24 34 -25 15 -2 -43 50
-128 65 -161 29z"/>
<path d="M590 948 c0 -16 -51 -288 -61 -326 -7 -23 -17 -41 -23 -39 -5 2 -31
42 -56 89 -25 47 -58 105 -74 128 -27 41 -29 42 -42 25 -8 -10 -35 -70 -61
-132 -26 -62 -51 -113 -56 -113 -7 0 -111 210 -130 263 -4 9 -14 17 -23 17 -8
0 -14 -4 -12 -8 80 -192 154 -352 163 -352 7 0 17 12 23 28 6 15 29 75 52 134
23 59 46 111 52 114 17 11 44 -26 108 -154 34 -69 67 -121 73 -119 14 4 50
158 73 315 13 86 15 115 6 124 -7 7 -12 9 -12 6z"/>
<path d="M2379 934 c-9 -11 -13 -45 -12 -110 2 -132 4 -136 61 -132 l47 3 6
58 c11 101 47 109 137 31 47 -41 51 -43 57 -24 9 27 -21 73 -87 135 -29 28
-47 43 -40 36 12 -15 17 -63 6 -74 -3 -3 -20 10 -36 29 -53 60 -112 80 -139
48z"/>
<path d="M626 873 c-7 -72 -46 -278 -65 -351 -9 -33 -16 -42 -34 -42 -18 0
-12 -10 38 -60 70 -71 95 -75 109 -17 5 20 12 37 16 37 3 0 24 -18 45 -40 26
-27 48 -40 66 -40 25 0 26 3 33 61 3 34 16 78 27 99 17 31 20 47 15 84 -8 53
-11 56 -65 58 -52 2 -78 -21 -86 -75 -17 -113 -14 -107 -51 -107 l-34 0 0 208
c0 131 4 212 10 218 8 8 7 14 -3 22 -12 10 -15 1 -21 -55z"/>
<path d="M662 699 c3 -128 8 -194 16 -197 6 -2 13 17 18 45 16 112 52 149 133
138 44 -6 51 -10 60 -37 6 -17 11 -57 11 -89 0 -48 3 -59 16 -59 14 0 16 8 10
46 -3 26 -6 60 -6 76 0 19 -10 40 -29 59 -36 35 -85 38 -150 9 -24 -11 -45
-20 -47 -20 -2 0 -5 48 -6 107 -2 79 -7 108 -17 111 -11 4 -12 -29 -9 -189z"/>
<path d="M3695 869 c-33 -4 -68 -6 -77 -3 -17 5 -18 -8 -18 -180 0 -142 3
-186 13 -186 26 0 114 28 157 50 119 60 180 127 180 197 0 92 -103 141 -255
122z m148 -25 c78 -27 107 -87 73 -153 -36 -68 -163 -154 -251 -168 l-35 -6 0
162 0 161 28 6 c15 3 32 7 37 9 27 9 107 3 148 -11z"/>
<path d="M3715 834 c-11 -3 -30 -7 -42 -10 -22 -4 -23 -7 -23 -139 0 -152 -2
-149 77 -119 l43 17 0 62 c0 62 0 63 31 69 17 3 47 6 66 6 21 0 36 6 40 16 9
23 -13 61 -45 78 -31 16 -115 27 -147 20z"/>
<path d="M4057 856 c-4 -9 -16 -16 -29 -16 -21 0 -21 -1 7 -30 28 -30 29 -34
36 -168 4 -75 5 -141 2 -145 -3 -5 -14 -12 -25 -16 -17 -6 -12 -13 40 -63 45
-43 64 -56 81 -51 11 3 21 10 21 16 0 7 4 7 12 -1 7 -7 25 -12 40 -12 27 0 28
1 28 57 0 52 -1 55 -15 37 -22 -29 -32 -5 -29 74 4 72 14 88 67 99 25 5 27 9
27 51 l0 45 -32 -7 c-18 -3 -53 -16 -78 -29 l-45 -22 -3 -98 -3 -98 -32 3 -32
3 -3 149 c-2 122 0 152 13 166 13 15 12 19 -14 44 -23 22 -29 25 -34 12z"/>
<path d="M1620 840 c0 -38 -32 -90 -56 -90 -18 0 -23 -6 -26 -32 -3 -32 -4
-33 -45 -30 l-43 4 0 -107 c0 -100 -1 -107 -21 -112 -18 -5 -14 -12 37 -64 86
-87 94 -83 94 51 l0 110 45 0 c42 0 45 2 45 26 0 16 -18 47 -47 82 -46 56 -46
56 -7 20 l40 -38 17 30 c10 17 31 37 48 45 16 9 29 19 29 23 0 10 -93 102
-103 102 -4 0 -7 -9 -7 -20z"/>
<path d="M3965 747 c0 -49 -5 -69 -24 -96 -53 -75 -198 -156 -299 -169 l-44
-5 49 -49 c26 -28 58 -54 69 -58 40 -16 174 28 253 82 l33 24 -1 149 c-2 127
-4 153 -19 167 -16 16 -17 14 -17 -45z"/>
<path d="M2989 776 c-10 -11 26 -279 38 -283 9 -3 12 17 10 76 -2 78 -1 80 32
115 43 44 88 60 157 54 47 -4 54 -2 54 14 0 13 -7 18 -27 18 -51 0 -143 -27
-182 -53 -42 -28 -51 -26 -51 8 0 23 -22 60 -31 51z"/>
<path d="M4115 768 c-3 -8 -4 -69 -3 -136 3 -140 21 -168 26 -40 2 45 8 89 15
97 20 24 110 61 148 61 33 0 37 -3 43 -31 3 -17 6 -74 6 -125 0 -58 4 -94 10
-94 7 0 9 28 6 78 -2 42 -4 94 -5 114 -1 23 -10 47 -24 64 -29 33 -59 28 -142
-22 -32 -19 -59 -34 -62 -34 -2 0 -1 15 2 34 7 34 -10 61 -20 34z"/>
<path d="M4435 768 c-3 -8 -4 -69 -3 -136 3 -140 21 -168 26 -40 2 45 8 89 15
97 20 24 110 61 148 61 33 0 37 -3 43 -31 3 -17 6 -74 6 -125 0 -52 4 -94 8
-94 7 0 9 68 4 182 -1 32 -9 55 -25 74 -29 33 -59 28 -142 -22 -32 -19 -59
-34 -62 -34 -2 0 -1 15 2 34 7 34 -10 61 -20 34z"/>
<path d="M3306 754 c3 -10 -1 -27 -9 -38 -11 -15 -17 -17 -35 -7 -46 25 -144
0 -186 -47 -18 -21 -21 -53 -13 -162 2 -20 -3 -26 -24 -28 -14 -2 -30 3 -36
10 -6 7 -16 58 -22 113 -7 60 -18 106 -26 115 -13 12 -14 10 -6 -17 11 -39 -1
-108 -26 -142 -11 -14 -37 -36 -59 -49 -33 -19 -51 -22 -116 -20 l-77 3 46
-47 c64 -65 102 -82 173 -75 60 5 102 22 135 55 20 19 20 19 66 -24 36 -32 52
-41 69 -37 21 6 22 9 16 74 -9 84 7 120 66 150 37 19 78 24 148 17 21 -3 25 2
28 27 2 25 -7 40 -57 89 -36 35 -58 52 -55 40z"/>
<path d="M4371 750 c8 -15 15 -73 17 -147 4 -117 3 -123 -17 -130 -19 -8 -16
-12 33 -61 40 -40 60 -53 78 -50 12 2 22 9 21 16 -3 14 13 16 22 2 3 -5 19
-10 36 -10 28 0 29 2 29 46 0 38 -3 44 -13 35 -22 -18 -27 -2 -27 80 0 77 1
79 30 94 16 8 36 15 45 15 11 0 15 11 15 46 l0 47 -32 -7 c-18 -3 -53 -16 -78
-29 l-45 -22 -3 -98 -3 -98 -32 3 -32 3 -3 121 c-2 116 -4 122 -29 145 l-26
24 14 -25z"/>
<path d="M4691 750 c8 -15 15 -74 17 -147 4 -117 3 -123 -17 -130 -19 -8 -16
-12 33 -61 40 -40 60 -53 78 -50 19 3 23 8 20 36 -4 37 7 41 34 11 56 -63 189
-65 275 -5 l34 23 40 -38 c30 -29 46 -37 63 -32 21 5 22 8 16 84 l-7 79 36 34
c44 41 108 60 160 45 45 -12 57 -6 57 28 0 17 -18 44 -61 86 -34 34 -59 55
-56 46 3 -9 -1 -26 -9 -38 -12 -17 -19 -19 -34 -11 -31 16 -91 11 -138 -11
-59 -29 -73 -63 -65 -158 l6 -71 -31 0 c-28 0 -32 4 -41 38 -5 20 -12 69 -16
109 -5 52 -12 76 -26 89 -18 16 -19 16 -19 -12 0 -16 -4 -35 -8 -42 -13 -19
-70 -32 -117 -25 -48 6 -110 -11 -119 -32 -3 -8 6 -23 22 -35 31 -25 61 -22
155 12 44 16 61 18 70 9 27 -27 -45 -84 -127 -101 -145 -30 -233 61 -181 187
l16 37 -37 36 c-30 29 -34 31 -23 10z"/>
<path d="M4857 756 c-50 -18 -76 -42 -98 -91 -45 -98 -3 -165 104 -165 50 0
130 25 148 46 15 18 13 18 -56 -6 -92 -32 -151 -25 -175 21 -30 54 24 89 138
89 80 0 102 9 102 40 0 9 -10 25 -21 36 -22 19 -22 19 -11 -2 15 -29 2 -44
-48 -55 -40 -9 -150 -3 -150 8 0 36 86 78 144 71 42 -5 35 7 -9 16 -16 3 -47
-1 -68 -8z"/>
<path d="M5094 738 c3 -18 11 -78 17 -133 11 -105 14 -115 30 -115 6 0 8 28 4
73 -5 61 -3 77 13 103 35 55 143 91 210 70 18 -6 22 -4 22 13 0 15 -6 21 -24
21 -54 0 -134 -22 -179 -50 -27 -17 -50 -30 -51 -30 -2 0 -6 18 -10 40 -4 26
-11 40 -22 40 -11 0 -14 -8 -10 -32z"/>
<path d="M1105 741 c-69 -32 -135 -120 -135 -180 0 -78 161 -63 221 20 21 29
23 30 30 13 4 -10 8 -33 8 -51 1 -17 5 -34 10 -37 8 -6 6 70 -5 182 -8 75 -47
91 -129 53z m108 -25 c25 -35 -24 -127 -93 -173 -65 -45 -138 -21 -124 41 21
100 174 193 217 132z"/>
<path d="M1105 691 c-112 -69 -118 -195 -7 -137 50 26 110 112 98 142 -8 20
-55 17 -91 -5z"/>
<path d="M1930 732 c0 -31 -2 -32 -27 -25 -77 22 -183 -7 -183 -48 0 -17 4
-20 23 -15 13 3 55 8 93 12 60 6 72 4 94 -14 24 -20 25 -20 7 -56 -19 -40
-116 -110 -169 -121 l-30 -7 48 -50 c27 -27 57 -54 66 -59 24 -13 114 28 167
76 54 49 54 76 -1 132 -42 43 -41 51 6 33 24 -9 26 -7 26 18 -1 19 -19 47 -60
92 l-60 65 0 -33z"/>
<path d="M2774 746 c-91 -29 -134 -73 -134 -140 0 -75 34 -106 118 -106 99 1
172 62 172 145 0 49 -22 83 -66 101 -39 16 -37 16 -90 0z m118 -37 c44 -59 21
-146 -47 -175 -19 -8 -59 -14 -90 -14 -87 0 -114 42 -81 121 28 66 82 100 155
96 34 -2 48 -8 63 -28z"/>
<path d="M2776 710 c-41 -13 -75 -48 -86 -92 -16 -57 -1 -78 55 -78 86 0 145
44 145 108 0 63 -38 84 -114 62z"/>
<path d="M332 709 c-11 -24 -34 -86 -53 -136 -30 -83 -37 -93 -59 -93 -22 0
-19 -6 35 -60 86 -87 96 -83 146 50 21 58 39 108 39 113 0 10 -69 150 -80 161
-6 6 -17 -8 -28 -35z"/>
<path d="M1257 673 c2 -37 8 -96 12 -131 l8 -63 -31 3 c-28 3 -31 7 -34 40
l-3 38 -37 -30 c-66 -52 -184 -59 -211 -12 -9 14 -10 13 -11 -9 0 -28 -23 -44
-43 -33 -7 4 15 -21 48 -55 63 -65 102 -79 112 -41 5 18 7 18 34 5 39 -21 108
-19 154 5 l39 20 26 -25 c14 -14 36 -25 49 -25 22 0 23 2 16 52 -4 29 -9 97
-10 153 -2 55 -4 103 -4 107 -1 4 -22 8 -48 10 -39 2 -49 7 -51 23 -9 51 -19
30 -15 -32z"/>
<path d="M2602 670 c3 -24 0 -25 -87 -36 -49 -7 -97 -13 -106 -13 -14 -1 -16
-11 -11 -70 l5 -70 -30 -3 -29 -3 57 -53 c33 -31 70 -55 89 -59 l33 -6 -8 68
c-8 76 -2 85 52 85 56 0 58 4 56 86 -1 42 -7 82 -13 88 -8 8 -10 4 -8 -14z"/>
</g>
</svg>
