<svg width="752.3150146484375px" height="140.9600036621094px" xmlns="http://www.w3.org/2000/svg" viewBox="-126.15750732421873 4.519998168945307 752.3150146484375 140.9600036621094" style="background: rgb(255, 255, 255);" preserveAspectRatio="xMidYMid"><defs><filter id="editing-vintage" x="-100%" y="-100%" width="300%" height="300%"><feConvolveMatrix in="SourceGraphic" result="extrude" order="9,9" divisor="1" kernelMatrix="1,0,0,0,0,0,0,0,0,0,1,0,0,0,0,0,0,0,0,0,1,0,0,0,0,0,0,0,0,0,1,0,0,0,0,0,0,0,0,0,1,0,0,0,0,0,0,0,0,0,1,0,0,0,0,0,0,0,0,0,1,0,0,0,0,0,0,0,0,0,1,0,0,0,0,0,0,0,0,0,1"> </feConvolveMatrix><feFlood flood-color="#900" result="flood-extrude"></feFlood><feComposite operator="in" in="flood-extrude" in2="extrude" result="extrude-color"></feComposite><feOffset dx="5" dy="5" in="extrude-color" result="extrude-offset"></feOffset><feColorMatrix in="SourceGraphic" result="stroke" type="matrix" values="0 0 0 0 0 0 0 0 0 0 0 0 0 0 0 0 1 0 0 0 "></feColorMatrix><feColorMatrix in="SourceGraphic" result="fill" type="matrix" values="0 0 0 0 0 0 0 0 0 0 0 0 0 0 0 1 0 0 1 0 "></feColorMatrix><feConvolveMatrix in="stroke" result="inner-shadow" order="5,5" divisor="1" kernelMatrix="1 0 0 0 0 0 1 0 0 0 0 0 1 0 0 0 0 0 1 0 0 0 0 0 1 "></feConvolveMatrix><feOffset dx="1" dy="1" in="inner-shadow" result="offset"></feOffset><feComposite operator="in" in="offset" in2="SourceAlpha" result="comp"></feComposite><feFlood flood-color="#000" result="flood3"></feFlood><feComposite operator="in" in="flood3" in2="comp" result="comp2"></feComposite><feColorMatrix in="comp2" result="comp3" type="matrix" values="1 0 0 0 0 0 1 0 0 0 0 0 1 0 0 0 0 0 0.5 0 "></feColorMatrix><feFlood flood-color="#f00" result="flood1"></feFlood><feComposite operator="in" in="flood1" in2="fill" result="fill2"></feComposite><feFlood flood-color="#fff" result="flood2"></feFlood><feComposite operator="in" in="flood2" in2="stroke" result="stroke2"></feComposite><feMerge result="obj"><feMergeNode in="extrude-offset"></feMergeNode><feMergeNode in="fill2"></feMergeNode><feMergeNode in="comp3"></feMergeNode></feMerge><feConvolveMatrix in="SourceAlpha" result="shadow" order="9,9" divisor="1" kernelMatrix="1,0,0,0,0,0,0,0,0,0,1,0,0,0,0,0,0,0,0,0,1,0,0,0,0,0,0,0,0,0,1,0,0,0,0,0,0,0,0,0,1,0,0,0,0,0,0,0,0,0,1,0,0,0,0,0,0,0,0,0,1,0,0,0,0,0,0,0,0,0,1,0,0,0,0,0,0,0,0,0,1"></feConvolveMatrix><feOffset dx="15" dy="15" in="shadow" result="shadow-offset"></feOffset><feFlood flood-color="#444444" result="flood-shadow"></feFlood><feComposite operator="in" in="flood-shadow" in2="shadow-offset" result="shadow-color"></feComposite><feMerge><feMergeNode in="shadow-color"></feMergeNode><feMergeNode in="obj"></feMergeNode></feMerge></filter></defs><g transform="translate(-9,-9)"><g filter="url(#editing-vintage)"><g transform="translate(-19.094979166984558, 101.84500312805176)"><path d="M47.69-10.38L47.69-10.38L47.69-10.38Q50.81-20.50 54.94-47.38L54.94-47.38L54.94-47.38Q58.88-47.38 59.06-44.94L59.06-44.94L59.06-44.94Q59.13-44.19 59.16-43.88L59.16-43.88L59.16-43.88Q59.19-43.56 58.94-41.72L58.94-41.72L58.94-41.72Q58.69-39.88 58.22-36.56L58.22-36.56L58.22-36.56Q57.75-33.25 57.06-28.88L57.06-28.88L57.06-28.88Q56.38-24.50 55.50-19.75L55.50-19.75L55.50-19.75Q53.38-8.56 51.13-0.88L51.13-0.88L51.13-0.88Q48.88 0.69 47.63-0.38L47.63-0.38L47.63-0.38Q47.06-0.94 46.63-1.91L46.63-1.91L46.63-1.91Q46.19-2.88 45.63-4.13L45.63-4.13L45.63-4.13Q44.81-5.19 42.63-9.75L42.63-9.75L42.63-9.75Q40.44-14.31 39.09-17L39.09-17L39.09-17Q37.75-19.69 36.50-22L36.50-22L36.50-22Q33.63-27.19 31.69-28.06L31.69-28.06L31.69-28.06Q29.44-24.56 23.69-8.88L23.69-8.88L23.69-8.88Q22.69-6.13 21.88-3.78L21.88-3.78L21.88-3.78Q21.06-1.44 20.50 0L20.50 0L16.63-0.19L1-36.31L1-36.31Q0.88-36.63 0.88-36.94L0.88-36.94L0.88-36.94Q0.88-37.25 1.09-37.56L1.09-37.56L1.09-37.56Q1.31-37.88 1.88-38.13L1.88-38.13L1.88-38.13Q2.94-38.50 4-38.50L4-38.50L4-38.50Q5.06-38.50 5.53-38.09L5.53-38.09L5.53-38.09Q6-37.69 6.28-37.06L6.28-37.06L6.28-37.06Q6.56-36.44 6.75-35.69L6.75-35.69L6.75-35.69Q6.94-34.94 7.47-33.75L7.47-33.75L7.47-33.75Q8-32.56 9.03-30.25L9.03-30.25L9.03-30.25Q10.06-27.94 11.25-25.38L11.25-25.38L11.25-25.38Q12.44-22.81 13.63-20.28L13.63-20.28L13.63-20.28Q14.81-17.75 15.88-15.63L15.88-15.63L15.88-15.63Q18.13-10.94 18.69-10.38L18.69-10.38L18.69-10.38Q25.94-28.25 27.63-31.59L27.63-31.59L27.63-31.59Q29.31-34.94 29.75-35.69L29.75-35.69L29.75-35.69Q30.44-36.75 30.81-36.75L30.81-36.75L30.81-36.75Q33.50-36.75 39.88-24.75L39.88-24.75L39.88-24.75Q41.63-21.56 43.13-18.63L43.13-18.63L43.13-18.63Q46.81-11.50 47.69-10.38ZM91.25-0.88L91.25-0.88L91.25-0.88Q90.69 0.19 88.34 0.19L88.34 0.19L88.34 0.19Q86 0.19 86-1.50L86-1.50L86-1.50Q86-8.88 85.69-11.63L85.69-11.63L85.69-11.63Q85.13-17.69 83.31-18.13L83.31-18.13L83.31-18.13Q78.81-19 75.97-19L75.97-19L75.97-19Q73.13-19 71.28-17.28L71.28-17.28L71.28-17.28Q69.44-15.56 68.47-11.59L68.47-11.59L68.47-11.59Q67.50-7.63 67.06-0.44L67.06-0.44L62.25-0.44L62.25-0.44Q62.38-4 62.38-7.06L62.38-7.06L62.38-7.06Q62.38-10.13 62.25-14.34L62.25-14.34L62.25-14.34Q62.13-18.56 61.94-23.56L61.94-23.56L61.94-23.56Q61.63-29.31 61.63-33.28L61.63-33.28L61.63-33.28Q61.63-37.25 62.13-40.56L62.13-40.56L62.13-40.56Q62.75-41.75 63.94-41.75L63.94-41.75L63.94-41.75Q65.38-41.75 66.19-40.72L66.19-40.72L66.19-40.72Q67-39.69 67.06-38.88L67.06-38.88L66.75-28.56L66.75-28.56Q66.75-22.75 67.31-19.88L67.31-19.88L67.31-19.88Q72.94-23.63 78.94-23.63L78.94-23.63L78.94-23.63Q80.88-23.63 83.06-23.31L83.06-23.31L83.06-23.31Q87.75-20.88 89.19-18.13L89.19-18.13L89.19-18.13Q89.88-16.69 90.06-15.06L90.06-15.06L90.06-15.06Q90.25-13.44 90.31-11.38L90.31-11.38L90.31-11.38Q90.69-4.25 91.25-0.88ZM118.13-10.38L118.13-10.38L118.13-10.38Q113.44-3 105.63-1.25L105.63-1.25L105.63-1.25Q103.81-0.88 102.34-0.88L102.34-0.88L102.34-0.88Q100.88-0.88 99.91-0.91L99.91-0.91L99.91-0.91Q98.94-0.94 97.75-1.19L97.75-1.19L97.75-1.19Q96.56-1.44 95.56-2L95.56-2L95.56-2Q93.25-3.31 93.25-5.69L93.25-5.69L93.25-5.69Q93-6.81 93-8.22L93-8.22L93-8.22Q93-9.63 93.63-11.94L93.63-11.94L93.63-11.94Q94.25-14.25 95.91-16.94L95.91-16.94L95.91-16.94Q97.56-19.63 99.94-21.88L99.94-21.88L99.94-21.88Q104.88-26.63 110.63-28L110.63-28L110.63-28Q112.31-28.38 113.72-28.38L113.72-28.38L113.72-28.38Q115.13-28.38 116.25-28.19L116.25-28.19L116.25-28.19Q119.88-28.19 121.13-23.25L121.13-23.25L121.13-23.25Q121.94-20.13 122.09-14.53L122.09-14.53L122.09-14.53Q122.25-8.94 122.41-5.91L122.41-5.91L122.41-5.91Q122.56-2.88 123.19-0.38L123.19-0.38L119.50-0.38L119.50-0.38Q119.25-2.06 119.13-3.38L119.13-3.38L119.13-3.38Q119-4.69 118.88-5.81L118.88-5.81L118.88-5.81Q118.56-8.44 118.13-10.38ZM117.88-20.06L117.88-20.06L117.88-20.06Q117.88-23.69 114.31-23.69L114.31-23.69L114.31-23.69Q113.88-23.75 113.44-23.75L113.44-23.75L113.44-23.75Q108.88-23.75 103.81-19.38L103.81-19.38L103.81-19.38Q101.44-17.38 99.75-14.88L99.75-14.88L99.75-14.88Q97.25-11.31 97.25-8.50L97.25-8.50L97.25-8.50Q97.25-4.81 101.50-4.13L101.50-4.13L101.50-4.13Q107.13-4.25 112.25-9.25L112.25-9.25L112.25-9.25Q114.44-11.44 115.88-14L115.88-14L115.88-14Q117.88-17.44 117.88-20.06ZM135.56-6L135.56-6L135.69-16L135.69-16Q135.69-18.38 135.25-20.06L135.25-20.06L125.56-20.06L125.44-24.38L134.81-24.38L134.81-40.50L134.81-40.50Q135-41.06 135.56-41.63L135.56-41.63L135.56-41.63Q136.44-42.50 137.03-42.50L137.03-42.50L137.03-42.50Q137.63-42.50 138.06-42.38L138.06-42.38L138.06-42.38Q138.50-42.25 139-41.50L139-41.50L139-41.50Q140-37.38 140-29.06L140-29.06L140-29.06Q140-27 140.19-25L140.19-25L140.19-25Q142.19-25.25 144.19-25.25L144.19-25.25L144.19-25.25Q144.19-25.25 147.44-25.25L147.44-25.25L147.44-25.25Q148.63-25.25 149.63-25.38L149.63-25.38L149.44-20.88L140.31-21.13L140.63 0.44L140.63 0.44Q139.50 0.94 138.69 0.94L138.69 0.94L138.69 0.94Q135.56 0.94 135.56-6ZM156.81-38.69L156.81-38.69L156.81-38.69Q158.31-38.69 158.31-36.50L158.31-36.50L158.31-36.50Q158.31-33.94 156.19-29.75L156.19-29.75L156.19-29.75Q155.56-28.50 155-27.63L155-27.63L152-27.38L155.50-38.38L155.50-38.38Q156.25-38.69 156.81-38.69ZM183.75-16.13L183.75-16.13L183.75-16.13Q190.63-16.13 190.63-12.63L190.63-12.63L190.63-12.63Q190.63-10 186.81-6.50L186.81-6.50L186.81-6.50Q181.13-1.31 171.50 1.81L171.50 1.81L171.50 1.81Q171.06 1.81 170.53 0.94L170.53 0.94L170.53 0.94Q170 0.06 169.72-0.41L169.72-0.41L169.72-0.41Q169.44-0.88 169.31-1L169.31-1L169.31-1Q176.50-3.38 181.13-6.75L181.13-6.75L181.13-6.75Q184.25-9 184.25-10.44L184.25-10.44L184.25-10.44Q184.25-11.88 180.56-11.88L180.56-11.88L180.56-11.88Q176.88-11.88 169.75-10.13L169.75-10.13L169.75-10.13Q166.50-10.25 164.13-12.44L164.13-12.44L164.13-12.44Q162.06-14.38 162.06-16.34L162.06-16.34L162.06-16.34Q162.06-18.31 163.19-19.97L163.19-19.97L163.19-19.97Q164.31-21.63 166.19-23.06L166.19-23.06L166.19-23.06Q168.06-24.50 170.56-25.69L170.56-25.69L170.56-25.69Q176.69-28.63 183.25-28.63L183.25-28.63L183.25-28.63Q185.19-28.63 187-28.25L187-28.25L187-28.25Q188.50-28.25 188.75-26.94L188.75-26.94L188.75-26.94Q189-25.63 189-22.63L189-22.63L189-22.63Q185.31-24.31 180.69-24.31L180.69-24.31L180.69-24.31Q174.94-24.31 171.19-22L171.19-22L171.19-22Q167.31-19.75 167.19-16.13L167.19-16.13L167.19-16.13Q167.19-14.38 169.75-14.38L169.75-14.38L174.31-14.88L174.31-14.88Q180.19-16.13 183.75-16.13ZM256-20.88L256-20.88L256-20.88Q256.31-20.88 256.31-19.19L256.31-19.19L256.31-19.19Q256.31-17.50 256.44-16.88L256.44-16.88L235-14.25L236.13-0.38L231.06-0.63L231.06-0.63Q231.06-6.25 229.81-13.50L229.81-13.50L221.69-10.38L221.69-10.38Q220.88-10.38 220.31-11.31L220.31-11.31L220.31-11.31Q219.31-12.94 219.31-14.25L219.31-14.25L228.81-17.63L228.81-17.63Q227.56-28.38 227.56-35.09L227.56-35.09L227.56-35.09Q227.56-41.81 228.69-45.56L228.69-45.56L228.69-45.56Q229.81-49.31 231.97-50.59L231.97-50.59L231.97-50.59Q234.13-51.88 236.56-51.88L236.56-51.88L236.56-51.88Q239-51.88 241.53-50.81L241.53-50.81L241.53-50.81Q244.06-49.75 246.38-48.13L246.38-48.13L246.38-48.13Q248.69-46.50 250.31-44.47L250.31-44.47L250.31-44.47Q251.94-42.44 251.94-40.50L251.94-40.50L251.94-40.50Q251.94-39 251.63-38.38L251.63-38.38L251.63-38.38Q249.13-41.88 245.56-44.63L245.56-44.63L245.56-44.63Q241.31-47.88 237.56-47.88L237.56-47.88L237.56-47.88Q234-47.88 232.81-42.81L232.81-42.81L232.81-42.81Q232.25-40.19 232.25-35.41L232.25-35.41L232.25-35.41Q232.25-30.63 232.50-26.66L232.50-26.66L232.50-26.66Q232.75-22.69 234-18.69L234-18.69L234-18.69Q237.88-18.69 242.69-19.38L242.69-19.38L242.69-19.38Q251.94-20.81 256-20.88ZM259.69-11.88L259.69-11.88L259.69-11.88Q259.69-19.25 266.06-23.75L266.06-23.75L266.06-23.75Q271.13-27.31 278.25-28.06L278.25-28.06L278.25-28.06Q278.63-28.06 280-28.06L280-28.06L280-28.06Q281.38-28.06 283.69-27.25L283.69-27.25L283.69-27.25Q288.81-25.50 290.69-21.06L290.69-21.06L290.69-21.06Q291.44-19.31 291.44-18.09L291.44-18.09L291.44-18.09Q291.44-16.88 291.38-16.38L291.38-16.38L291.38-16.38Q291.38-8.56 285.44-4.06L285.44-4.06L285.44-4.06Q279.94 0.06 271.69 0.06L271.69 0.06L271.69 0.06Q265.75 0.06 262.72-2.69L262.72-2.69L262.72-2.69Q259.69-5.44 259.69-11.88ZM264-10.38L264-10.38L264-10.38Q264-6.50 266.06-5.13L266.06-5.13L266.06-5.13Q267.63-4.13 271.31-4.13L271.31-4.13L271.31-4.13Q275-4.13 277.81-4.69L277.81-4.69L277.81-4.69Q280.63-5.25 282.81-6.63L282.81-6.63L282.81-6.63Q287.50-9.63 287.50-15.94L287.50-15.94L287.50-15.94Q287.50-19.69 285.50-22.06L285.50-22.06L285.50-22.06Q283.31-24.63 279.75-24.63L279.75-24.63L279.75-24.63Q277.31-24.19 274.84-23.69L274.84-23.69L274.84-23.69Q272.38-23.19 270.19-21.75L270.19-21.75L270.19-21.75Q265.44-18.69 264-10.38ZM324.81-22.81L324.81-22.81L324.81-22.81Q322.19-24.69 318.06-24.69L318.06-24.69L318.06-24.69Q314.19-24.69 310.88-23.25L310.88-23.25L310.88-23.25Q304.63-20.63 302.31-16.50L302.31-16.50L302.31-16.50Q301.31-14.63 301.31-12.50L301.31-12.50L301.31-12.50Q301.31-12.13 301.31-10.41L301.31-10.41L301.31-10.41Q301.31-8.69 301.94-5.78L301.94-5.78L301.94-5.78Q302.56-2.88 302.56 0.13L302.56 0.13L302.56 0.13Q301.25 0.19 300.44 0.44L300.44 0.44L300.44 0.44Q299.63 0.69 299.06 0.69L299.06 0.69L299.06 0.69Q298.50 0.69 298.09 0.19L298.09 0.19L298.09 0.19Q297.69-0.31 297.19-1.75L297.19-1.75L297.19-1.75Q297.13-2.13 296.94-3.88L296.94-3.88L296.94-3.88Q296.75-5.63 296.47-8.13L296.47-8.13L296.47-8.13Q296.19-10.63 295.84-13.59L295.84-13.59L295.84-13.59Q295.50-16.56 295.19-19.44L295.19-19.44L295.19-19.44Q294.50-25.69 294.13-28.63L294.13-28.63L294.13-28.63Q294.13-30.13 296.31-30.13L296.31-30.13L296.31-30.13Q297.63-30.13 298.38-29.03L298.38-29.03L298.38-29.03Q299.13-27.94 299.56-26.53L299.56-26.53L299.56-26.53Q300-25.13 300.16-23.75L300.16-23.75L300.16-23.75Q300.31-22.38 300.44-21.81L300.44-21.81L300.44-21.81Q308.69-29.19 320.94-29.19L320.94-29.19L320.94-29.19Q322.31-29.19 323.81-29.13L323.81-29.13L323.81-29.13Q324.19-29.19 324.75-29.19L324.75-29.19L324.75-29.19Q325.31-29.19 325.88-28.44L325.88-28.44L325.88-28.44Q326.56-27.56 326.56-26.31L326.56-26.31L326.56-26.31Q326.56-23.19 324.81-22.81ZM359.94-38.38L359.94-38.38L359.94-38.38Q364.56-40 372.19-40L372.19-40L372.19-40Q386.13-40 391.25-33.13L391.25-33.13L391.25-33.13Q393.25-30.50 393.25-26.44L393.25-26.44L393.25-26.44Q393.31-25.88 393.31-25.31L393.31-25.31L393.31-25.31Q393.31-19.06 386-12.63L386-12.63L386-12.63Q379.31-6.56 369.50-2.88L369.50-2.88L369.50-2.88Q363-0.38 358.75-0.38L358.75-0.38L358.75-0.38Q357-0.38 355.75-0.88L355.75-0.88L355.75-39.88L356.63-39.88L356.63-39.88Q358.06-39.88 358.94-39.41L358.94-39.41L358.94-39.41Q359.81-38.94 359.94-38.38ZM389.06-25.94L389.06-25.94L389.06-25.94Q388.50-31.50 382.88-34.19L382.88-34.19L382.88-34.19Q378.69-36.19 372.38-36.19L372.38-36.19L371.25-36.13L371.25-36.13Q365.31-36 361-34.25L361-34.25L361-4.44L361-4.44Q365.38-4.44 371.94-7.63L371.94-7.63L371.94-7.63Q383.31-13.25 387.56-20.69L387.56-20.69L387.56-20.69Q389.06-23.31 389.06-25.94ZM398.25-29.38L402.19-29.38L402.19-29.38Q403-17.69 403.56-2.31L403.56-2.31L403.56-2.31Q403.19-0.38 400.56-0.38L400.56-0.38L400.56-0.38Q399.88-0.38 399.16-0.66L399.16-0.66L399.16-0.66Q398.44-0.94 398.25-1.44L398.25-1.44L398.25-29.38ZM396.38-37.88L396.38-37.88L396.38-37.88Q396.38-40.06 398.94-40.06L398.94-40.06L398.94-40.06Q400.63-40.06 401.69-39.31L401.69-39.31L401.69-39.31Q401.88-38.63 401.88-37.97L401.88-37.97L401.88-37.97Q401.88-37.31 401.38-36.69L401.38-36.69L401.38-36.69Q400.88-36.06 399.88-36.06L399.88-36.06L399.88-36.06Q398.88-36.06 397.88-36.53L397.88-36.53L397.88-36.53Q396.88-37 396.38-37.88ZM430.56-9.88L430.63-13.69L430.63-13.69Q430.63-21.13 429.81-24.63L429.81-24.63L429.81-24.63Q430.31-25.56 428.31-25.56L428.31-25.56L428.31-25.56Q426.19-25.56 422.81-24.50L422.81-24.50L422.81-24.50Q419.44-23.44 417.31-22.38L417.31-22.38L417.31-22.38Q412.25-19.94 411.69-17.63L411.69-17.63L411.69-0.63L407.50-0.63L407.50-0.63Q406.69-2.75 406.69-12.56L406.69-12.56L406.69-12.56Q406.69-21.31 407.03-25.44L407.03-25.44L407.03-25.44Q407.38-29.56 407.56-30.13L407.56-30.13L407.56-30.13Q409.19-31.19 410.19-31.19L410.19-31.19L410.19-31.19Q411.75-31.19 411.75-27.50L411.75-27.50L411.75-27.50Q411.75-26.06 411.59-24.72L411.59-24.72L411.59-24.72Q411.44-23.38 411.44-22.88L411.44-22.88L411.44-22.88Q421.56-30.31 427.13-30.31L427.13-30.31L427.13-30.31Q433.44-30.31 434.31-20.13L434.31-20.13L434.31-20.13Q434.69-16.56 434.69-10.25L434.69-10.25L434.63-5.31L434.63-5.31Q434.63-2.56 434.75 0L434.75 0L434.75 0Q434.13 0.38 433.75 0.38L433.75 0.38L433.75 0.38Q433.56 0.31 432.94 0.19L432.94 0.19L432.94 0.19Q432.31 0.06 431.31 0L431.31 0L431.31 0Q430.69-2.50 430.63-5.09L430.63-5.09L430.63-5.09Q430.56-7.69 430.56-9.88L430.56-9.88ZM462.56-9.88L462.63-13.69L462.63-13.69Q462.63-21.13 461.81-24.63L461.81-24.63L461.81-24.63Q462.31-25.56 460.31-25.56L460.31-25.56L460.31-25.56Q458.19-25.56 454.81-24.50L454.81-24.50L454.81-24.50Q451.44-23.44 449.31-22.38L449.31-22.38L449.31-22.38Q444.25-19.94 443.69-17.63L443.69-17.63L443.69-0.63L439.50-0.63L439.50-0.63Q438.69-2.75 438.69-12.56L438.69-12.56L438.69-12.56Q438.69-21.31 439.03-25.44L439.03-25.44L439.03-25.44Q439.38-29.56 439.56-30.13L439.56-30.13L439.56-30.13Q441.19-31.19 442.19-31.19L442.19-31.19L442.19-31.19Q443.75-31.19 443.75-27.50L443.75-27.50L443.75-27.50Q443.75-26.06 443.59-24.72L443.59-24.72L443.59-24.72Q443.44-23.38 443.44-22.88L443.44-22.88L443.44-22.88Q453.56-30.31 459.13-30.31L459.13-30.31L459.13-30.31Q465.44-30.31 466.31-20.13L466.31-20.13L466.31-20.13Q466.69-16.56 466.69-10.25L466.69-10.25L466.63-5.31L466.63-5.31Q466.63-2.56 466.75 0L466.75 0L466.75 0Q466.13 0.38 465.75 0.38L465.75 0.38L465.75 0.38Q465.56 0.31 464.94 0.19L464.94 0.19L464.94 0.19Q464.31 0.06 463.31 0L463.31 0L463.31 0Q462.69-2.50 462.63-5.09L462.63-5.09L462.63-5.09Q462.56-7.69 462.56-9.88L462.56-9.88ZM483-4.38L483-4.38L483-4.38Q488.50-4.38 499.56-9.38L499.56-9.38L499.56-9.38Q500.25-9.38 500.69-8.91L500.69-8.91L500.69-8.91Q501.13-8.44 501.13-7.81L501.13-7.81L501.13-7.81Q498.63-3.56 491.56-1.19L491.56-1.19L491.56-1.19Q484.50 1.19 478.38-0.38L478.38-0.38L478.38-0.38Q471.44-2.19 469.94-8.19L469.94-8.19L469.94-8.19Q469.81-9.38 469.81-11.38L469.81-11.38L469.81-11.38Q469.81-13.38 470.84-16.66L470.84-16.66L470.84-16.66Q471.88-19.94 474.38-22.88L474.38-22.88L474.38-22.88Q476.88-25.81 480.25-27.50L480.25-27.50L480.25-27.50Q483.63-29.19 487.44-29.19L487.44-29.19L487.44-29.19Q491.06-29.19 495.56-26.69L495.56-26.69L495.56-26.69Q497.69-25.50 498.94-24L498.94-24L498.94-24Q500.19-22.50 500.19-20.94L500.19-20.94L500.19-20.94Q500.19-20.50 500.13-20.06L500.13-20.06L500.13-20.06Q500-16.25 496.44-15.25L496.44-15.25L496.44-15.25Q494.88-14.81 492.81-14.81L492.81-14.81L483.81-15.19L483.81-15.19Q479.31-15.19 476.94-13.25L476.94-13.25L476.94-13.25Q475.56-12.19 475-10.06L475-10.06L475-10.06Q476.56-4.38 483-4.38ZM494.16-23.69L494.16-23.69L494.16-23.69Q492.75-24.69 491.25-25.13L491.25-25.13L491.25-25.13Q489.75-25.56 488.75-25.56L488.75-25.56L488.75-25.56Q487.75-25.56 485.50-24.91L485.50-24.91L485.50-24.91Q483.25-24.25 481.50-23.44L481.50-23.44L481.50-23.44Q477.19-21.44 477.19-19.25L477.19-19.25L477.19-19.25Q482.19-18.81 484.69-18.81L484.69-18.81L484.69-18.81Q491.63-18.81 494.06-20L494.06-20L494.06-20Q495.56-20.63 495.56-21.56L495.56-21.56L495.56-21.56Q495.56-22.69 494.16-23.69ZM535.56-22.81L535.56-22.81L535.56-22.81Q532.94-24.69 528.81-24.69L528.81-24.69L528.81-24.69Q524.94-24.69 521.63-23.25L521.63-23.25L521.63-23.25Q515.38-20.63 513.06-16.50L513.06-16.50L513.06-16.50Q512.06-14.63 512.06-12.50L512.06-12.50L512.06-12.50Q512.06-12.13 512.06-10.41L512.06-10.41L512.06-10.41Q512.06-8.69 512.69-5.78L512.69-5.78L512.69-5.78Q513.31-2.88 513.31 0.13L513.31 0.13L513.31 0.13Q512 0.19 511.19 0.44L511.19 0.44L511.19 0.44Q510.38 0.69 509.81 0.69L509.81 0.69L509.81 0.69Q509.25 0.69 508.84 0.19L508.84 0.19L508.84 0.19Q508.44-0.31 507.94-1.75L507.94-1.75L507.94-1.75Q507.88-2.13 507.69-3.88L507.69-3.88L507.69-3.88Q507.50-5.63 507.22-8.13L507.22-8.13L507.22-8.13Q506.94-10.63 506.59-13.59L506.59-13.59L506.59-13.59Q506.25-16.56 505.94-19.44L505.94-19.44L505.94-19.44Q505.25-25.69 504.88-28.63L504.88-28.63L504.88-28.63Q504.88-30.13 507.06-30.13L507.06-30.13L507.06-30.13Q508.38-30.13 509.13-29.03L509.13-29.03L509.13-29.03Q509.88-27.94 510.31-26.53L510.31-26.53L510.31-26.53Q510.75-25.13 510.91-23.75L510.91-23.75L510.91-23.75Q511.06-22.38 511.19-21.81L511.19-21.81L511.19-21.81Q519.44-29.19 531.69-29.19L531.69-29.19L531.69-29.19Q533.06-29.19 534.56-29.13L534.56-29.13L534.56-29.13Q534.94-29.19 535.50-29.19L535.50-29.19L535.50-29.19Q536.06-29.19 536.63-28.44L536.63-28.44L536.63-28.44Q537.31-27.56 537.31-26.31L537.31-26.31L537.31-26.31Q537.31-23.19 535.56-22.81Z" fill="#f00" stroke="#0f0" stroke-width="1.8"></path></g></g><g><g transform="translate(-19.095002055168152, 101.84500122070312)"><path d="M47.69-10.38L47.69-10.38L47.69-10.38Q50.81-20.50 54.94-47.38L54.94-47.38L54.94-47.38Q58.88-47.38 59.06-44.94L59.06-44.94L59.06-44.94Q59.13-44.19 59.16-43.88L59.16-43.88L59.16-43.88Q59.19-43.56 58.94-41.72L58.94-41.72L58.94-41.72Q58.69-39.88 58.22-36.56L58.22-36.56L58.22-36.56Q57.75-33.25 57.06-28.88L57.06-28.88L57.06-28.88Q56.38-24.50 55.50-19.75L55.50-19.75L55.50-19.75Q53.38-8.56 51.13-0.88L51.13-0.88L51.13-0.88Q48.88 0.69 47.63-0.38L47.63-0.38L47.63-0.38Q47.06-0.94 46.63-1.91L46.63-1.91L46.63-1.91Q46.19-2.88 45.63-4.13L45.63-4.13L45.63-4.13Q44.81-5.19 42.63-9.75L42.63-9.75L42.63-9.75Q40.44-14.31 39.09-17L39.09-17L39.09-17Q37.75-19.69 36.50-22L36.50-22L36.50-22Q33.63-27.19 31.69-28.06L31.69-28.06L31.69-28.06Q29.44-24.56 23.69-8.88L23.69-8.88L23.69-8.88Q22.69-6.13 21.88-3.78L21.88-3.78L21.88-3.78Q21.06-1.44 20.50 0L20.50 0L16.63-0.19L1-36.31L1-36.31Q0.88-36.63 0.88-36.94L0.88-36.94L0.88-36.94Q0.88-37.25 1.09-37.56L1.09-37.56L1.09-37.56Q1.31-37.88 1.88-38.13L1.88-38.13L1.88-38.13Q2.94-38.50 4-38.50L4-38.50L4-38.50Q5.06-38.50 5.53-38.09L5.53-38.09L5.53-38.09Q6-37.69 6.28-37.06L6.28-37.06L6.28-37.06Q6.56-36.44 6.75-35.69L6.75-35.69L6.75-35.69Q6.94-34.94 7.47-33.75L7.47-33.75L7.47-33.75Q8-32.56 9.03-30.25L9.03-30.25L9.03-30.25Q10.06-27.94 11.25-25.38L11.25-25.38L11.25-25.38Q12.44-22.81 13.63-20.28L13.63-20.28L13.63-20.28Q14.81-17.75 15.88-15.63L15.88-15.63L15.88-15.63Q18.13-10.94 18.69-10.38L18.69-10.38L18.69-10.38Q25.94-28.25 27.63-31.59L27.63-31.59L27.63-31.59Q29.31-34.94 29.75-35.69L29.75-35.69L29.75-35.69Q30.44-36.75 30.81-36.75L30.81-36.75L30.81-36.75Q33.50-36.75 39.88-24.75L39.88-24.75L39.88-24.75Q41.63-21.56 43.13-18.63L43.13-18.63L43.13-18.63Q46.81-11.50 47.69-10.38ZM91.25-0.88L91.25-0.88L91.25-0.88Q90.69 0.19 88.34 0.19L88.34 0.19L88.34 0.19Q86 0.19 86-1.50L86-1.50L86-1.50Q86-8.88 85.69-11.63L85.69-11.63L85.69-11.63Q85.13-17.69 83.31-18.13L83.31-18.13L83.31-18.13Q78.81-19 75.97-19L75.97-19L75.97-19Q73.13-19 71.28-17.28L71.28-17.28L71.28-17.28Q69.44-15.56 68.47-11.59L68.47-11.59L68.47-11.59Q67.50-7.63 67.06-0.44L67.06-0.44L62.25-0.44L62.25-0.44Q62.38-4 62.38-7.06L62.38-7.06L62.38-7.06Q62.38-10.13 62.25-14.34L62.25-14.34L62.25-14.34Q62.13-18.56 61.94-23.56L61.94-23.56L61.94-23.56Q61.63-29.31 61.63-33.28L61.63-33.28L61.63-33.28Q61.63-37.25 62.13-40.56L62.13-40.56L62.13-40.56Q62.75-41.75 63.94-41.75L63.94-41.75L63.94-41.75Q65.38-41.75 66.19-40.72L66.19-40.72L66.19-40.72Q67-39.69 67.06-38.88L67.06-38.88L66.75-28.56L66.75-28.56Q66.75-22.75 67.31-19.88L67.31-19.88L67.31-19.88Q72.94-23.63 78.94-23.63L78.94-23.63L78.94-23.63Q80.88-23.63 83.06-23.31L83.06-23.31L83.06-23.31Q87.75-20.88 89.19-18.13L89.19-18.13L89.19-18.13Q89.88-16.69 90.06-15.06L90.06-15.06L90.06-15.06Q90.25-13.44 90.31-11.38L90.31-11.38L90.31-11.38Q90.69-4.25 91.25-0.88ZM118.13-10.38L118.13-10.38L118.13-10.38Q113.44-3 105.63-1.25L105.63-1.25L105.63-1.25Q103.81-0.88 102.34-0.88L102.34-0.88L102.34-0.88Q100.88-0.88 99.91-0.91L99.91-0.91L99.91-0.91Q98.94-0.94 97.75-1.19L97.75-1.19L97.75-1.19Q96.56-1.44 95.56-2L95.56-2L95.56-2Q93.25-3.31 93.25-5.69L93.25-5.69L93.25-5.69Q93-6.81 93-8.22L93-8.22L93-8.22Q93-9.63 93.63-11.94L93.63-11.94L93.63-11.94Q94.25-14.25 95.91-16.94L95.91-16.94L95.91-16.94Q97.56-19.63 99.94-21.88L99.94-21.88L99.94-21.88Q104.88-26.63 110.63-28L110.63-28L110.63-28Q112.31-28.38 113.72-28.38L113.72-28.38L113.72-28.38Q115.13-28.38 116.25-28.19L116.25-28.19L116.25-28.19Q119.88-28.19 121.13-23.25L121.13-23.25L121.13-23.25Q121.94-20.13 122.09-14.53L122.09-14.53L122.09-14.53Q122.25-8.94 122.41-5.91L122.41-5.91L122.41-5.91Q122.56-2.88 123.19-0.38L123.19-0.38L119.50-0.38L119.50-0.38Q119.25-2.06 119.13-3.38L119.13-3.38L119.13-3.38Q119-4.69 118.88-5.81L118.88-5.81L118.88-5.81Q118.56-8.44 118.13-10.38ZM117.88-20.06L117.88-20.06L117.88-20.06Q117.88-23.69 114.31-23.69L114.31-23.69L114.31-23.69Q113.88-23.75 113.44-23.75L113.44-23.75L113.44-23.75Q108.88-23.75 103.81-19.38L103.81-19.38L103.81-19.38Q101.44-17.38 99.75-14.88L99.75-14.88L99.75-14.88Q97.25-11.31 97.25-8.50L97.25-8.50L97.25-8.50Q97.25-4.81 101.50-4.13L101.50-4.13L101.50-4.13Q107.13-4.25 112.25-9.25L112.25-9.25L112.25-9.25Q114.44-11.44 115.88-14L115.88-14L115.88-14Q117.88-17.44 117.88-20.06ZM135.56-6L135.56-6L135.69-16L135.69-16Q135.69-18.38 135.25-20.06L135.25-20.06L125.56-20.06L125.44-24.38L134.81-24.38L134.81-40.50L134.81-40.50Q135-41.06 135.56-41.63L135.56-41.63L135.56-41.63Q136.44-42.50 137.03-42.50L137.03-42.50L137.03-42.50Q137.63-42.50 138.06-42.38L138.06-42.38L138.06-42.38Q138.50-42.25 139-41.50L139-41.50L139-41.50Q140-37.38 140-29.06L140-29.06L140-29.06Q140-27 140.19-25L140.19-25L140.19-25Q142.19-25.25 144.19-25.25L144.19-25.25L144.19-25.25Q144.19-25.25 147.44-25.25L147.44-25.25L147.44-25.25Q148.63-25.25 149.63-25.38L149.63-25.38L149.44-20.88L140.31-21.13L140.63 0.44L140.63 0.44Q139.50 0.94 138.69 0.94L138.69 0.94L138.69 0.94Q135.56 0.94 135.56-6ZM156.81-38.69L156.81-38.69L156.81-38.69Q158.31-38.69 158.31-36.50L158.31-36.50L158.31-36.50Q158.31-33.94 156.19-29.75L156.19-29.75L156.19-29.75Q155.56-28.50 155-27.63L155-27.63L152-27.38L155.50-38.38L155.50-38.38Q156.25-38.69 156.81-38.69ZM183.75-16.13L183.75-16.13L183.75-16.13Q190.63-16.13 190.63-12.63L190.63-12.63L190.63-12.63Q190.63-10 186.81-6.50L186.81-6.50L186.81-6.50Q181.13-1.31 171.50 1.81L171.50 1.81L171.50 1.81Q171.06 1.81 170.53 0.94L170.53 0.94L170.53 0.94Q170 0.06 169.72-0.41L169.72-0.41L169.72-0.41Q169.44-0.88 169.31-1L169.31-1L169.31-1Q176.50-3.38 181.13-6.75L181.13-6.75L181.13-6.75Q184.25-9 184.25-10.44L184.25-10.44L184.25-10.44Q184.25-11.88 180.56-11.88L180.56-11.88L180.56-11.88Q176.88-11.88 169.75-10.13L169.75-10.13L169.75-10.13Q166.50-10.25 164.13-12.44L164.13-12.44L164.13-12.44Q162.06-14.38 162.06-16.34L162.06-16.34L162.06-16.34Q162.06-18.31 163.19-19.97L163.19-19.97L163.19-19.97Q164.31-21.63 166.19-23.06L166.19-23.06L166.19-23.06Q168.06-24.50 170.56-25.69L170.56-25.69L170.56-25.69Q176.69-28.63 183.25-28.63L183.25-28.63L183.25-28.63Q185.19-28.63 187-28.25L187-28.25L187-28.25Q188.50-28.25 188.75-26.94L188.75-26.94L188.75-26.94Q189-25.63 189-22.63L189-22.63L189-22.63Q185.31-24.31 180.69-24.31L180.69-24.31L180.69-24.31Q174.94-24.31 171.19-22L171.19-22L171.19-22Q167.31-19.75 167.19-16.13L167.19-16.13L167.19-16.13Q167.19-14.38 169.75-14.38L169.75-14.38L174.31-14.88L174.31-14.88Q180.19-16.13 183.75-16.13ZM256-20.88L256-20.88L256-20.88Q256.31-20.88 256.31-19.19L256.31-19.19L256.31-19.19Q256.31-17.50 256.44-16.88L256.44-16.88L235-14.25L236.13-0.38L231.06-0.63L231.06-0.63Q231.06-6.25 229.81-13.50L229.81-13.50L221.69-10.38L221.69-10.38Q220.88-10.38 220.31-11.31L220.31-11.31L220.31-11.31Q219.31-12.94 219.31-14.25L219.31-14.25L228.81-17.63L228.81-17.63Q227.56-28.38 227.56-35.09L227.56-35.09L227.56-35.09Q227.56-41.81 228.69-45.56L228.69-45.56L228.69-45.56Q229.81-49.31 231.97-50.59L231.97-50.59L231.97-50.59Q234.13-51.88 236.56-51.88L236.56-51.88L236.56-51.88Q239-51.88 241.53-50.81L241.53-50.81L241.53-50.81Q244.06-49.75 246.38-48.13L246.38-48.13L246.38-48.13Q248.69-46.50 250.31-44.47L250.31-44.47L250.31-44.47Q251.94-42.44 251.94-40.50L251.94-40.50L251.94-40.50Q251.94-39 251.63-38.38L251.63-38.38L251.63-38.38Q249.13-41.88 245.56-44.63L245.56-44.63L245.56-44.63Q241.31-47.88 237.56-47.88L237.56-47.88L237.56-47.88Q234-47.88 232.81-42.81L232.81-42.81L232.81-42.81Q232.25-40.19 232.25-35.41L232.25-35.41L232.25-35.41Q232.25-30.63 232.50-26.66L232.50-26.66L232.50-26.66Q232.75-22.69 234-18.69L234-18.69L234-18.69Q237.88-18.69 242.69-19.38L242.69-19.38L242.69-19.38Q251.94-20.81 256-20.88ZM259.69-11.88L259.69-11.88L259.69-11.88Q259.69-19.25 266.06-23.75L266.06-23.75L266.06-23.75Q271.13-27.31 278.25-28.06L278.25-28.06L278.25-28.06Q278.63-28.06 280-28.06L280-28.06L280-28.06Q281.38-28.06 283.69-27.25L283.69-27.25L283.69-27.25Q288.81-25.50 290.69-21.06L290.69-21.06L290.69-21.06Q291.44-19.31 291.44-18.09L291.44-18.09L291.44-18.09Q291.44-16.88 291.38-16.38L291.38-16.38L291.38-16.38Q291.38-8.56 285.44-4.06L285.44-4.06L285.44-4.06Q279.94 0.06 271.69 0.06L271.69 0.06L271.69 0.06Q265.75 0.06 262.72-2.69L262.72-2.69L262.72-2.69Q259.69-5.44 259.69-11.88ZM264-10.38L264-10.38L264-10.38Q264-6.50 266.06-5.13L266.06-5.13L266.06-5.13Q267.63-4.13 271.31-4.13L271.31-4.13L271.31-4.13Q275-4.13 277.81-4.69L277.81-4.69L277.81-4.69Q280.63-5.25 282.81-6.63L282.81-6.63L282.81-6.63Q287.50-9.63 287.50-15.94L287.50-15.94L287.50-15.94Q287.50-19.69 285.50-22.06L285.50-22.06L285.50-22.06Q283.31-24.63 279.75-24.63L279.75-24.63L279.75-24.63Q277.31-24.19 274.84-23.69L274.84-23.69L274.84-23.69Q272.38-23.19 270.19-21.75L270.19-21.75L270.19-21.75Q265.44-18.69 264-10.38ZM324.81-22.81L324.81-22.81L324.81-22.81Q322.19-24.69 318.06-24.69L318.06-24.69L318.06-24.69Q314.19-24.69 310.88-23.25L310.88-23.25L310.88-23.25Q304.63-20.63 302.31-16.50L302.31-16.50L302.31-16.50Q301.31-14.63 301.31-12.50L301.31-12.50L301.31-12.50Q301.31-12.13 301.31-10.41L301.31-10.41L301.31-10.41Q301.31-8.69 301.94-5.78L301.94-5.78L301.94-5.78Q302.56-2.88 302.56 0.13L302.56 0.13L302.56 0.13Q301.25 0.19 300.44 0.44L300.44 0.44L300.44 0.44Q299.63 0.69 299.06 0.69L299.06 0.69L299.06 0.69Q298.50 0.69 298.09 0.19L298.09 0.19L298.09 0.19Q297.69-0.31 297.19-1.75L297.19-1.75L297.19-1.75Q297.13-2.13 296.94-3.88L296.94-3.88L296.94-3.88Q296.75-5.63 296.47-8.13L296.47-8.13L296.47-8.13Q296.19-10.63 295.84-13.59L295.84-13.59L295.84-13.59Q295.50-16.56 295.19-19.44L295.19-19.44L295.19-19.44Q294.50-25.69 294.13-28.63L294.13-28.63L294.13-28.63Q294.13-30.13 296.31-30.13L296.31-30.13L296.31-30.13Q297.63-30.13 298.38-29.03L298.38-29.03L298.38-29.03Q299.13-27.94 299.56-26.53L299.56-26.53L299.56-26.53Q300-25.13 300.16-23.75L300.16-23.75L300.16-23.75Q300.31-22.38 300.44-21.81L300.44-21.81L300.44-21.81Q308.69-29.19 320.94-29.19L320.94-29.19L320.94-29.19Q322.31-29.19 323.81-29.13L323.81-29.13L323.81-29.13Q324.19-29.19 324.75-29.19L324.75-29.19L324.75-29.19Q325.31-29.19 325.88-28.44L325.88-28.44L325.88-28.44Q326.56-27.56 326.56-26.31L326.56-26.31L326.56-26.31Q326.56-23.19 324.81-22.81ZM359.94-38.38L359.94-38.38L359.94-38.38Q364.56-40 372.19-40L372.19-40L372.19-40Q386.13-40 391.25-33.13L391.25-33.13L391.25-33.13Q393.25-30.50 393.25-26.44L393.25-26.44L393.25-26.44Q393.31-25.88 393.31-25.31L393.31-25.31L393.31-25.31Q393.31-19.06 386-12.63L386-12.63L386-12.63Q379.31-6.56 369.50-2.88L369.50-2.88L369.50-2.88Q363-0.38 358.75-0.38L358.75-0.38L358.75-0.38Q357-0.38 355.75-0.88L355.75-0.88L355.75-39.88L356.63-39.88L356.63-39.88Q358.06-39.88 358.94-39.41L358.94-39.41L358.94-39.41Q359.81-38.94 359.94-38.38ZM389.06-25.94L389.06-25.94L389.06-25.94Q388.50-31.50 382.88-34.19L382.88-34.19L382.88-34.19Q378.69-36.19 372.38-36.19L372.38-36.19L371.25-36.13L371.25-36.13Q365.31-36 361-34.25L361-34.25L361-4.44L361-4.44Q365.38-4.44 371.94-7.63L371.94-7.63L371.94-7.63Q383.31-13.25 387.56-20.69L387.56-20.69L387.56-20.69Q389.06-23.31 389.06-25.94ZM398.25-29.38L402.19-29.38L402.19-29.38Q403-17.69 403.56-2.31L403.56-2.31L403.56-2.31Q403.19-0.38 400.56-0.38L400.56-0.38L400.56-0.38Q399.88-0.38 399.16-0.66L399.16-0.66L399.16-0.66Q398.44-0.94 398.25-1.44L398.25-1.44L398.25-29.38ZM396.38-37.88L396.38-37.88L396.38-37.88Q396.38-40.06 398.94-40.06L398.94-40.06L398.94-40.06Q400.63-40.06 401.69-39.31L401.69-39.31L401.69-39.31Q401.88-38.63 401.88-37.97L401.88-37.97L401.88-37.97Q401.88-37.31 401.38-36.69L401.38-36.69L401.38-36.69Q400.88-36.06 399.88-36.06L399.88-36.06L399.88-36.06Q398.88-36.06 397.88-36.53L397.88-36.53L397.88-36.53Q396.88-37 396.38-37.88ZM430.56-9.88L430.63-13.69L430.63-13.69Q430.63-21.13 429.81-24.63L429.81-24.63L429.81-24.63Q430.31-25.56 428.31-25.56L428.31-25.56L428.31-25.56Q426.19-25.56 422.81-24.50L422.81-24.50L422.81-24.50Q419.44-23.44 417.31-22.38L417.31-22.38L417.31-22.38Q412.25-19.94 411.69-17.63L411.69-17.63L411.69-0.63L407.50-0.63L407.50-0.63Q406.69-2.75 406.69-12.56L406.69-12.56L406.69-12.56Q406.69-21.31 407.03-25.44L407.03-25.44L407.03-25.44Q407.38-29.56 407.56-30.13L407.56-30.13L407.56-30.13Q409.19-31.19 410.19-31.19L410.19-31.19L410.19-31.19Q411.75-31.19 411.75-27.50L411.75-27.50L411.75-27.50Q411.75-26.06 411.59-24.72L411.59-24.72L411.59-24.72Q411.44-23.38 411.44-22.88L411.44-22.88L411.44-22.88Q421.56-30.31 427.13-30.31L427.13-30.31L427.13-30.31Q433.44-30.31 434.31-20.13L434.31-20.13L434.31-20.13Q434.69-16.56 434.69-10.25L434.69-10.25L434.63-5.31L434.63-5.31Q434.63-2.56 434.75 0L434.75 0L434.75 0Q434.13 0.38 433.75 0.38L433.75 0.38L433.75 0.38Q433.56 0.31 432.94 0.19L432.94 0.19L432.94 0.19Q432.31 0.06 431.31 0L431.31 0L431.31 0Q430.69-2.50 430.63-5.09L430.63-5.09L430.63-5.09Q430.56-7.69 430.56-9.88L430.56-9.88ZM462.56-9.88L462.63-13.69L462.63-13.69Q462.63-21.13 461.81-24.63L461.81-24.63L461.81-24.63Q462.31-25.56 460.31-25.56L460.31-25.56L460.31-25.56Q458.19-25.56 454.81-24.50L454.81-24.50L454.81-24.50Q451.44-23.44 449.31-22.38L449.31-22.38L449.31-22.38Q444.25-19.94 443.69-17.63L443.69-17.63L443.69-0.63L439.50-0.63L439.50-0.63Q438.69-2.75 438.69-12.56L438.69-12.56L438.69-12.56Q438.69-21.31 439.03-25.44L439.03-25.44L439.03-25.44Q439.38-29.56 439.56-30.13L439.56-30.13L439.56-30.13Q441.19-31.19 442.19-31.19L442.19-31.19L442.19-31.19Q443.75-31.19 443.75-27.50L443.75-27.50L443.75-27.50Q443.75-26.06 443.59-24.72L443.59-24.72L443.59-24.72Q443.44-23.38 443.44-22.88L443.44-22.88L443.44-22.88Q453.56-30.31 459.13-30.31L459.13-30.31L459.13-30.31Q465.44-30.31 466.31-20.13L466.31-20.13L466.31-20.13Q466.69-16.56 466.69-10.25L466.69-10.25L466.63-5.31L466.63-5.31Q466.63-2.56 466.75 0L466.75 0L466.75 0Q466.13 0.38 465.75 0.38L465.75 0.38L465.75 0.38Q465.56 0.31 464.94 0.19L464.94 0.19L464.94 0.19Q464.31 0.06 463.31 0L463.31 0L463.31 0Q462.69-2.50 462.63-5.09L462.63-5.09L462.63-5.09Q462.56-7.69 462.56-9.88L462.56-9.88ZM483-4.38L483-4.38L483-4.38Q488.50-4.38 499.56-9.38L499.56-9.38L499.56-9.38Q500.25-9.38 500.69-8.91L500.69-8.91L500.69-8.91Q501.13-8.44 501.13-7.81L501.13-7.81L501.13-7.81Q498.63-3.56 491.56-1.19L491.56-1.19L491.56-1.19Q484.50 1.19 478.38-0.38L478.38-0.38L478.38-0.38Q471.44-2.19 469.94-8.19L469.94-8.19L469.94-8.19Q469.81-9.38 469.81-11.38L469.81-11.38L469.81-11.38Q469.81-13.38 470.84-16.66L470.84-16.66L470.84-16.66Q471.88-19.94 474.38-22.88L474.38-22.88L474.38-22.88Q476.88-25.81 480.25-27.50L480.25-27.50L480.25-27.50Q483.63-29.19 487.44-29.19L487.44-29.19L487.44-29.19Q491.06-29.19 495.56-26.69L495.56-26.69L495.56-26.69Q497.69-25.50 498.94-24L498.94-24L498.94-24Q500.19-22.50 500.19-20.94L500.19-20.94L500.19-20.94Q500.19-20.50 500.13-20.06L500.13-20.06L500.13-20.06Q500-16.25 496.44-15.25L496.44-15.25L496.44-15.25Q494.88-14.81 492.81-14.81L492.81-14.81L483.81-15.19L483.81-15.19Q479.31-15.19 476.94-13.25L476.94-13.25L476.94-13.25Q475.56-12.19 475-10.06L475-10.06L475-10.06Q476.56-4.38 483-4.38ZM494.16-23.69L494.16-23.69L494.16-23.69Q492.75-24.69 491.25-25.13L491.25-25.13L491.25-25.13Q489.75-25.56 488.75-25.56L488.75-25.56L488.75-25.56Q487.75-25.56 485.50-24.91L485.50-24.91L485.50-24.91Q483.25-24.25 481.50-23.44L481.50-23.44L481.50-23.44Q477.19-21.44 477.19-19.25L477.19-19.25L477.19-19.25Q482.19-18.81 484.69-18.81L484.69-18.81L484.69-18.81Q491.63-18.81 494.06-20L494.06-20L494.06-20Q495.56-20.63 495.56-21.56L495.56-21.56L495.56-21.56Q495.56-22.69 494.16-23.69ZM535.56-22.81L535.56-22.81L535.56-22.81Q532.94-24.69 528.81-24.69L528.81-24.69L528.81-24.69Q524.94-24.69 521.63-23.25L521.63-23.25L521.63-23.25Q515.38-20.63 513.06-16.50L513.06-16.50L513.06-16.50Q512.06-14.63 512.06-12.50L512.06-12.50L512.06-12.50Q512.06-12.13 512.06-10.41L512.06-10.41L512.06-10.41Q512.06-8.69 512.69-5.78L512.69-5.78L512.69-5.78Q513.31-2.88 513.31 0.13L513.31 0.13L513.31 0.13Q512 0.19 511.19 0.44L511.19 0.44L511.19 0.44Q510.38 0.69 509.81 0.69L509.81 0.69L509.81 0.69Q509.25 0.69 508.84 0.19L508.84 0.19L508.84 0.19Q508.44-0.31 507.94-1.75L507.94-1.75L507.94-1.75Q507.88-2.13 507.69-3.88L507.69-3.88L507.69-3.88Q507.50-5.63 507.22-8.13L507.22-8.13L507.22-8.13Q506.94-10.63 506.59-13.59L506.59-13.59L506.59-13.59Q506.25-16.56 505.94-19.44L505.94-19.44L505.94-19.44Q505.25-25.69 504.88-28.63L504.88-28.63L504.88-28.63Q504.88-30.13 507.06-30.13L507.06-30.13L507.06-30.13Q508.38-30.13 509.13-29.03L509.13-29.03L509.13-29.03Q509.88-27.94 510.31-26.53L510.31-26.53L510.31-26.53Q510.75-25.13 510.91-23.75L510.91-23.75L510.91-23.75Q511.06-22.38 511.19-21.81L511.19-21.81L511.19-21.81Q519.44-29.19 531.69-29.19L531.69-29.19L531.69-29.19Q533.06-29.19 534.56-29.13L534.56-29.13L534.56-29.13Q534.94-29.19 535.50-29.19L535.50-29.19L535.50-29.19Q536.06-29.19 536.63-28.44L536.63-28.44L536.63-28.44Q537.31-27.56 537.31-26.31L537.31-26.31L537.31-26.31Q537.31-23.19 535.56-22.81Z" fill="none" stroke="#fff" stroke-width="2.1"></path></g></g></g><style>text {
  font-size: 64px;
  font-family: Arial Black;
  dominant-baseline: central;
  text-anchor: middle;
}</style></svg>